<?xml version="1.0" encoding="utf-8"?>
<!-- Generator: Adobe Illustrator 16.0.0, SVG Export Plug-In . SVG Version: 6.00 Build 0)  -->
<!DOCTYPE svg PUBLIC "-//W3C//DTD SVG 1.1//EN" "http://www.w3.org/Graphics/SVG/1.1/DTD/svg11.dtd">
<svg version="1.1" id="Layer_1" xmlns="http://www.w3.org/2000/svg" xmlns:xlink="http://www.w3.org/1999/xlink" x="0px" y="0px"
	 width="2048px" height="2048px" viewBox="0 0 2048 2048" enable-background="new 0 0 2048 2048" xml:space="preserve">
<g>
	<path fill="#FFFFFF" d="M1055,1c-0.818,0.37-1.608,0.977-2.457,1.075c-10.408,1.204-16.03,8.212-19.146,17.09
		c-3.396,9.67-5.693,19.676-5.505,30.169c0.122,6.688-0.976,6.601-7.811,7.971c-11.718,2.349-23.761,4.248-34.806,8.548
		c-22.362,8.708-39.704,24.561-53.838,43.594c-8.099,10.906-15.149,22.669-21.838,34.519c-7.316,12.969-13.7,26.466-20.438,39.761
		c-5.686,11.218-10.869,22.715-17.054,33.647c-6.073,10.733-12.604,21.296-19.892,31.232c-8.406,11.465-17.096,22.912-27.029,33.022
		c-15.93,16.211-34.529,29.143-55.752,37.638c-12.895,5.162-25.969,10.482-39.466,13.388c-19.02,4.094-38.433,6.635-58.044,6.591
		c-5.556-0.013-11.111,0.763-16.668,0.77c-3.856,0.005-4.916,2.143-4.026,5.046c1.981,6.484,3.716,13.225,6.916,19.119
		c6.313,11.623,13.021,23.113,20.596,33.939c5.202,7.437,11.792,14.02,18.376,20.346c10.28,9.875,20.523,19.933,31.805,28.583
		c13.018,9.98,26.855,18.984,40.885,27.512c9.166,5.571,19.145,9.92,29.053,14.12c9.796,4.153,19.742,8.29,30.015,10.902
		c17.095,4.348,34.317,8.048,52.203,8.598c10.872,0.333,21.358,0.448,31.704-3.191c2.935-1.033,6.053-1.726,9.144-2.097
		c5.302-0.636,7.568-3.234,6.202-8.646c-2.577-10.204-5.795-20.249-8.254-30.479c-3.294-13.705-7.18-27.333-7.044-41.645
		c0.067-7.208-0.086-14.419-0.236-21.627c-0.168-8.109-1.494-16.355-0.438-24.292c1.796-13.493,5.118-26.779,7.669-40.177
		c0.676-3.549,2.683-5.071,6.096-5.162c1.332-0.035,2.733,0.177,3.983-0.161c9.323-2.521,18.681-4.957,27.907-7.799
		c11.757-3.621,23.689-6.905,35.027-11.59c15.36-6.348,27.664-17.663,40.687-27.674c8.397-6.457,16.219-13.664,24.526-20.244
		c3.118-2.468,6.89-4.113,9.642-5.714c5.135,7.935,9.358,15.874,14.909,22.746c11.721,14.51,27.859,23.368,44.296,31.188
		c12.047,5.73,24.802,10.111,37.512,14.268c11.322,3.703,22.985,6.397,34.565,9.266c3.438,0.852,4.766,2.477,5.398,5.952
		c1.232,6.737,2.561,13.576,4.965,19.952c3.588,9.514,6.323,18.969,4.816,29.238c-0.694,4.738-1.284,9.491-2.014,14.224
		c-1.824,11.887-3.627,23.78-5.587,35.646c-1.336,8.083-3.105,16.098-4.348,24.192c-1.271,8.282-1.897,16.664-3.231,24.936
		c-1.273,7.911-3.095,15.719,6.299,20.229c0.683,0.327,1.105,1.19,1.73,1.896c-6.896,14.942-13.646,29.825-20.623,44.6
		c-6.932,14.68-14.268,29.166-21.107,43.886c-7.73,16.644-14.582,33.718-22.842,50.087c-5.005,9.919-11.681,19.049-18.096,28.188
		c-9.776,13.935-22.418,25.038-36.369,34.621c-6.603,4.536-6.968,5.711-1.361,11.1c0.946,0.909,1.995,1.72,3.041,2.518
		c9.15,6.989,18.277,14.015,27.48,20.936c13.557,10.194,27.143,20.354,40.771,30.452c12.438,9.219,24.761,18.62,37.506,27.399
		c7.817,5.386,9.479,7.096,16.433-0.263c8.244-8.723,16.274-17.704,23.724-27.104c10.669-13.465,21.081-27.166,30.938-41.23
		c8.746-12.479,17.045-25.324,24.717-38.49c10.275-17.635,20.15-35.528,29.447-53.694c6.754-13.198,13.057-26.568,14.082-42.02
		c1-15.07-4.851-26.931-14.106-37.692c-9.394-10.923-22.362-16.877-34.646-23.646c-9.604-5.292-19.721-9.668-29.229-15.114
		c-4.848-2.776-8.855-7.018-14.399-11.537c2.831-0.302,3.915-0.418,4.999-0.529c9.378-0.965,18.812-1.555,28.119-2.973
		c17.813-2.716,35.011-7.898,51.369-15.37c13.494-6.165,27.025-12.509,39.689-20.18c19.729-11.946,38.131-25.797,54.203-42.582
		c10.029-10.478,20.454-20.539,27.711-33.318c4.342-7.647,9.385-14.92,13.343-22.751c2.692-5.326,4.282-11.261,5.884-17.058
		c0.567-2.056,1.271-5.271-2.873-5.503c-3.945-0.22-7.883-0.917-11.822-0.92c-17.254-0.017-34.127-2.894-51.006-6.101
		c-18.211-3.46-35.625-9.516-52.146-17.514c-12.086-5.852-23.598-13.335-34.283-21.506c-10.191-7.795-19.899-16.645-28.188-26.417
		c-14.396-16.973-27.164-35.227-37.328-55.206c-13.197-25.943-26.822-51.667-40.176-77.531
		c-8.138-15.759-17.363-30.765-28.891-44.325c-9.436-11.102-19.702-21.242-32.437-28.483c-15.652-8.9-32.216-15.331-50.328-17.081
		c-2.74-0.265-3.751-1.682-4.271-4.444c-2.062-10.974-4.302-21.922-6.807-32.804c-2.584-11.225-8.647-19.039-21.159-19.861
		c-0.342-0.022-0.646-0.618-0.969-0.946 M177,1746c1.355,6.672,2.59,13.371,4.135,19.998c0.502,2.156,1.528,4.324,2.801,6.147
		c8.949,12.825,22.735,14.47,36.516,14.373c9.817-0.068,19.617-2.369,29.429-3.646c3.533-0.46,7.075-0.842,10.129-1.201
		c1.526,9.956,2.547,19.399,4.536,28.635c1.394,6.473,2.888,13.499,6.525,18.77c5.039,7.297,12.193,12.878,21.599,14.811
		c9.556,1.965,18.729,0.725,27.601-2.576c7.339-2.729,14.278-6.521,21.589-9.343c1.245-0.481,5.027,1.628,4.981,2.38
		c-0.468,7.768,3.851,13.885,6.482,20.563c5.29,13.411,18.703,22.65,33.374,22.972c13.463,0.295,25.587-4.341,37.493-9.889
		c3.801-1.771,7.635-3.47,11.771-5.345c0.297,1.694,0.478,2.65,0.631,3.61c1.193,7.413,1.644,15.043,3.746,22.188
		c2.997,10.174,9.837,17.84,20.021,21.253c11.708,3.925,23.487,1.776,34.643-2.585c7.713-3.02,14.937-7.292,22.979-11.307
		c0.659,1.687,1.752,3.523,2.093,5.492c2.218,12.817,9.217,23.13,17.323,32.742c6.037,7.159,14.427,9.48,23.509,9.831
		c3.446,0.133,7.196,1.513,10.265,0.566c8.466-2.609,16.721-5.968,24.908-9.392c4.637-1.938,8.977-4.592,13.525-6.963
		c2.099,5.498,4.17,10.646,6.032,15.863c5.667,15.873,17.74,25.234,34.216,23.77c10.101-0.896,19.453-4.764,28.058-10.253
		c7.446-4.75,14.925-9.446,22.463-14.214c7.363,10.021,14.085,20.285,25.114,27.307c11.498,7.319,23.951,10.979,36.857,10.682
		c15.555-0.358,30.867-4.002,45.29-10.538c23.507-10.653,44.722-24.788,64.378-41.422c17.379-14.704,33.293-30.75,46.45-49.396
		c1.317-1.866,2.114-4.103,3.604-7.064c-6.182-0.362-11.25-0.487-16.282-0.986c-14.76-1.463-29.525-2.916-44.253-4.664
		c-21.446-2.544-42.883-5.188-64.283-8.091c-12.348-1.674-24.631-3.851-36.916-5.965c-8.765-1.509-17.495-3.231-26.219-4.968
		c-8.197-1.632-16.418-3.189-24.535-5.165c-9.83-2.396-19.555-5.213-29.334-7.813c-17.166-4.563-34.381-8.955-51.492-13.719
		c-8.682-2.417-17.188-5.468-25.761-8.271c-13.577-4.439-27.25-8.62-40.68-13.469c-10.271-3.707-20.259-8.21-30.324-12.47
		c-19.328-8.183-38.785-16.082-57.885-24.769c-20.331-9.244-40.417-19.052-60.409-29.015c-15.771-7.858-31.33-16.163-46.813-24.583
		c-11.352-6.175-22.646-12.509-33.573-19.396c-15.396-9.705-30.706-19.594-45.529-30.141c-13.721-9.764-29.264-16.711-41.654-28.66
		c-6.08-5.861-14.625-9.137-21.928-13.777c-3.748-2.384-5.377-1.79-6.905,2.604c-7.616,21.916-15.761,43.647-23.361,65.568
		c-4.631,13.354-8.746,26.896-12.824,40.434c-1.725,5.725-2.758,11.655-4.105,17.493 M975,2049c0.993-0.368,1.958-0.856,2.981-1.084
		c6.396-1.41,13.012-2.162,19.176-4.249c16.751-5.673,30.878-15.992,44.978-26.342c3.554-2.607,2.609-5.135,1.236-7.974
		c-4.869-10.058-9.674-20.15-14.802-30.077c-8.749-16.937-18.924-32.87-34.37-44.623c-12.87-9.796-28.623-15.813-45.769-5.444
		c-3.042,1.84-6.048,3.742-9.113,5.539c-22.813,13.358-44.209,28.458-61.479,48.837c-3.598,4.246-4.834,9.214-3.032,13.655
		c2.416,5.956,5.576,12.425,10.309,16.454c8.978,7.646,18.927,14.359,29.18,20.229c8.005,4.58,16.84,8.174,25.744,10.593
		c9.461,2.57,19.284,4.613,29.341,3.461c0.823-0.094,1.744,0.664,2.62,1.025 M947.083,1171.032
		c-1.404,9.246-2.729,17.529-3.91,25.835c-3.531,24.813-12.937,47.557-25.542,68.894c-15.493,26.228-35.678,48.489-60.793,65.876
		c-10.792,7.473-21.989,14.595-33.74,20.375c-12.291,6.046-25.346,10.634-38.298,15.203c-9.857,3.479-19.921,6.826-30.173,8.658
		c-23.358,4.173-46.869,6.769-70.774,5.483c-13.588-0.73-26.937-1.983-40.271-4.802c-16.608-3.509-32.172-9.504-46.886-17.714
		c-5.87-3.273-10.985-7.872-16.701-11.458c-13.979-8.771-24.907-20.946-36.372-32.471c-6.56-6.594-12.127-14.163-18.313-21.142
		c-7.396-8.34-14.745-16.737-22.536-24.698c-8.038-8.213-16.276-16.288-25.013-23.737c-5.797-4.943-12.715-8.552-18.959-12.999
		c-4.785-3.407-6.904-3.282-9.94,1.451c-7.876,12.281-15.865,24.492-23.544,36.895c-9.827,15.871-19.373,31.916-29.083,47.86
		c-6.411,10.526-12.589,21.212-19.432,31.453c-7.879,11.797-16.668,22.984-24.521,34.798c-9.933,14.934-19.362,30.199-28.923,45.376
		c-7.613,12.085-14.976,24.331-22.671,36.362c-10.404,16.264-21.004,32.4-31.557,48.569c-7.295,11.181-14.726,22.271-21.93,33.508
		c-2.133,3.326-3.772,7.078-0.832,10.863c2.51,3.231,5.081,6.443,7.896,9.405c11.984,12.604,26.151,22.44,40.791,31.618
		c16.596,10.402,33.06,21.048,50.021,30.824c15.788,9.101,32.115,17.271,48.278,25.712c12.604,6.582,25.281,13.021,37.995,19.393
		c11.282,5.653,22.627,11.188,34.002,16.651c8.791,4.221,17.659,8.281,26.52,12.354c9.713,4.467,19.385,9.034,29.21,13.241
		c8.75,3.747,17.736,6.938,26.524,10.603c10.453,4.357,20.608,9.504,31.244,13.336c19.155,6.9,38.568,13.093,57.884,19.558
		c10.57,3.538,21.093,7.24,31.755,10.479c10.726,3.264,21.6,6.035,32.404,9.037c10.92,3.033,21.755,6.422,32.771,9.049
		c16.763,3.997,33.623,7.598,50.491,11.131c15.25,3.193,30.511,6.398,45.867,9.016c19.808,3.373,39.688,6.343,59.586,9.146
		c15.646,2.207,31.337,4.188,47.06,5.741c15.15,1.496,30.358,2.464,45.56,3.382c12.664,0.766,25.35,1.271,38.031,1.617
		c18.122,0.495,36.248,0.908,54.374,1.024c9.746,0.062,19.496-0.613,29.247-0.875c14.902-0.399,29.824-0.399,44.706-1.178
		c17.504-0.911,34.98-2.409,52.458-3.776c10.701-0.837,21.395-1.819,32.072-2.896c9.52-0.958,19.022-2.063,28.52-3.227
		c11.625-1.423,23.275-2.7,34.838-4.533c13.935-2.21,27.789-4.908,41.672-7.448c11.313-2.068,22.683-3.896,33.896-6.411
		c14.216-3.188,28.32-6.883,42.437-10.502c15.104-3.875,30.232-7.674,45.221-11.963c11.686-3.344,23.245-7.169,34.724-11.177
		c14.718-5.138,29.679-9.83,43.841-16.245c18.93-8.572,37.303-18.409,55.707-28.098c13.532-7.124,26.864-14.659,40.047-22.42
		c14.302-8.421,28.287-17.375,42.479-25.984c15.031-9.118,30.188-18.031,45.209-27.163c19.245-11.698,38.387-23.566,57.622-35.28
		c8.839-5.382,17.642-10.857,26.741-15.771c13.515-7.293,27.34-14.01,40.893-21.235c3.023-1.61,8.025-2.19,6.775-7.688
		c-0.502-2.21-1.202-4.484-2.34-6.42c-6.384-10.875-12.328-22.074-19.549-32.372c-11.715-16.702-24.097-32.949-36.572-49.098
		c-12.938-16.742-26.127-33.305-39.582-49.635c-10.852-13.168-22.322-25.822-33.402-38.803
		c-9.355-10.961-18.428-22.166-27.842-33.074c-8.422-9.757-17.068-19.32-25.746-28.852c-7.729-8.488-15.744-16.72-23.441-25.234
		c-11.927-13.193-23.525-26.686-35.578-39.761c-8.212-8.907-17.102-17.188-25.434-25.984
		c-11.025-11.643-21.661-23.653-32.729-35.257c-10.213-10.71-20.789-21.073-31.18-31.616c-12.558-12.745-24.938-25.668-37.674-38.23
		c-10.601-10.46-21.689-20.422-32.406-30.77c-20.717-19.997-41.705-39.671-64.634-57.167c-10.142-7.738-13.086-8.504-22.537-2.326
		c-14.301,9.35-28.296,19.183-42.182,29.144c-10.563,7.576-21.029,15.336-31.05,23.604c-23.053,19.023-46.937,36.673-73.922,49.899
		c-16.695,8.186-33.84,14.917-51.681,20.191c-27.253,8.061-55.247,10.927-83.377,12.854c-13.737,0.941-27.571,1.417-41.321,0.94
		c-13.341-0.464-26.636-2.35-39.938-3.729c-13.795-1.432-27.571-3.047-41.365-4.496
		C954.491,1171.341,950.694,1171.252,947.083,1171.032z M639.498,1127.234c-0.914-0.475-1.555-0.686-2.048-1.078
		c-10.172-8.146-20.354-16.274-30.478-24.479c-8.57-6.947-17.113-13.932-25.592-20.995c-12.707-10.587-24.997-21.717-38.165-31.688
		c-6.25-4.733-9.025-9.479-8.531-17.317c0.673-10.624,0.156-21.321,0.17-31.987c0.006-3.923-1.285-5.849-5.411-3.688
		c-1.159,0.606-2.5,0.959-3.505,1.75c-17.677,13.901-32.766,30.122-41.524,51.063c-5.059,12.093-9.173,24.741-12.104,37.512
		c-2.569,11.188-2.922,22.892-4.209,34.371c-2.013,17.928-1.401,35.875,2.527,53.381c4.848,21.597,13.79,41.743,26.285,60.07
		c6.949,10.192,14.715,19.84,22.288,29.596c13.91,17.92,31.167,32.429,49.295,45.663c12.412,9.062,26.028,16.642,39.669,23.812
		c21.203,11.146,44.117,16.423,68.083,16.559c14.045,0.08,28.094-0.469,42.142-0.576c4.811-0.038,9.662,0.908,14.424,0.521
		c11.345-0.928,22.801-1.604,33.921-3.837c12.016-2.409,24.061-5.559,35.43-10.063c11.424-4.523,22.406-10.507,32.888-16.975
		c9.596-5.922,19.063-12.521,27.127-20.327c8.935-8.645,17.269-18.325,23.934-28.784c7.358-11.548,13.964-24.01,18.296-36.943
		c5.584-16.676,6.258-34.382,4.472-52.031c-1.152-11.396-8.068-17.179-18.909-14.066c-9.545,2.74-18.854,6.565-27.898,10.721
		c-11.022,5.061-21.854,10.066-34.463,8.771c-5.608-0.576-11.357-0.158-16.88-1.124c-11.164-1.953-22.42-3.844-33.26-7.046
		c-13.817-4.083-27.228-9.539-40.88-14.207c-8.387-2.867-16.954-5.216-25.312-8.161c-1.746-0.615-4.392-3.146-4.147-4.259
		c2.831-12.988,5.114-26.238,9.569-38.693c5.742-16.057,13.168-31.523,20.156-47.118c7.768-17.323,17.877-33.343,28.375-49.106
		c10.323-15.506,23.216-28.967,38.486-39.178c20.776-13.891,43.014-25.579,64.377-38.615c7.192-4.391,13.939-9.655,20.316-15.185
		c4.553-3.945,3.893-7.807-1.563-10.255c-4.971-2.229-10.371-4.057-15.743-4.695c-6.896-0.818-13.957-0.172-20.941-0.341
		c-10.768-0.261-21.534-1.024-32.293-0.901c-6.69,0.076-13.574,0.621-20.004,2.332c-11.741,3.124-20.851,11.138-30.06,18.578
		c-17.616,14.235-32.047,31.56-46.229,49.061c-1.542,1.904-1.78,4.854-3.296,6.792c-4.491,5.746-10.057,10.771-13.877,16.901
		c-11.705,18.777-23.399,37.613-33.93,57.061c-8.739,16.141-15.953,33.117-23.575,49.845
		C644.069,1114.073,641.997,1120.626,639.498,1127.234z M1877.981,1612.954c-1.498,0.309-3.295,0.245-4.58,1.025
		c-3.461,2.102-6.736,4.517-10.027,6.89c-15.662,11.292-31.341,22.563-46.943,33.935c-14.476,10.552-28.707,21.44-43.332,31.776
		c-16.847,11.905-33.677,23.893-51.138,34.85c-13.137,8.242-27.062,15.313-40.985,22.194c-19.451,9.614-39.096,18.872-58.916,27.699
		c-14.136,6.295-28.723,11.564-43.059,17.416c-10.646,4.344-21.109,9.154-31.842,13.269c-13.953,5.351-28.03,10.396-42.168,15.235
		c-17.396,5.956-34.776,12.019-52.408,17.2c-17.311,5.088-34.88,9.323-52.426,13.563c-12.615,3.047-25.309,5.895-38.094,8.091
		c-18.731,3.221-37.519,6.322-56.395,8.479c-21.25,2.427-42.607,4.048-63.956,5.422c-11.021,0.71-22.126,0.125-34.717,0.125
		c1.675,4.073,2.266,6.636,3.648,8.651c3.186,4.637,6.829,8.949,10.153,13.491c15.766,21.54,34.811,39.6,57.029,54.396
		c16.11,10.729,33.594,17.965,52.646,21.26c18.54,3.206,37.14,3.594,55.127-2.525c11.729-3.988,23.134-9.082,34.339-14.402
		c6.698-3.184,12.734-7.763,19.572-12.027c0.619,2.058,1.146,3.896,1.725,5.719c6.121,19.354,23.807,33.283,45.532,22.261
		c12.726-6.455,20.72-16.834,26.966-28.978c2.434-4.733,4.144-9.838,6.4-15.302c2.059,1.229,3.734,2.172,5.354,3.208
		c11.095,7.098,22.313,14.094,35.504,16.463c9.156,1.646,18.601,1.709,25.098-6.406c3.395-4.237,6.47-9.467,7.525-14.687
		c2.408-11.896,3.556-24.056,5.048-36.125c0.354-2.877,0.053-5.834,0.053-8.755c-0.163,0.466-0.326,0.932-0.488,1.396
		c5.789,5.045,11.761,9.899,17.327,15.182c8.624,8.182,17.998,15.011,29.816,17.604c10.052,2.208,19.029,0.552,26.662-7.222
		c9.734-9.918,11.498-22.493,12.955-35.312c0.397-3.509,0.854-7.012,1.353-11.08c1.44,0.715,2.144,1.033,2.816,1.403
		c13.456,7.384,26.431,15.811,42.092,18.171c13.354,2.015,23.048-3.891,27.415-16.193c4.27-12.021,5.532-24.686,5.229-37.472
		c-0.039-1.689,0.52-3.395,0.867-5.505c2.569,1.194,4.641,1.854,6.371,3.016c11.887,7.972,24.449,14.206,38.875,16.021
		c10.973,1.379,21.039,0.257,28.314-9.436c5.619-7.484,7.49-16.207,7.416-25.204c-0.09-10.854-1.058-21.697-1.646-32.573
		c5.209,2.605,10.994,5.269,16.556,8.336c11.252,6.207,22.948,10.699,36.049,10.37c8.229-0.208,14.688-5.203,17.25-12.926
		c5.377-16.204,2.721-32.435-0.51-48.411c-2.757-13.64-6.64-27.096-10.785-40.394c-4.785-15.347-10.459-30.415-15.646-45.639
		C1883.991,1631.633,1881.168,1622.698,1877.981,1612.954z M789.416,604.456c-1.965,12.446,3.31,23.724,8.817,34.547
		c5.07,9.967,11.629,19.208,17.855,28.551c7.462,11.194,14.824,22.502,23.037,33.139c10.63,13.767,21.757,27.18,33.217,40.267
		c14.167,16.179,28.544,32.206,43.486,47.666c12.861,13.307,26.508,25.869,40.056,38.493c12.482,11.632,24.808,23.517,38.076,34.203
		c21.371,17.211,43.015,34.158,65.385,50.031c19.406,13.771,39.867,26.187,63.777,30.952c5.743,1.146,11.936,2.795,17.432,1.719
		c6.851-1.345,13.72-4.446,19.65-8.242c16.049-10.274,30.726-22.331,42.812-37.247c7.194-8.88,13.463-18.211,16.207-29.625
		c0.987-4.106,0.327-6.99-2.633-9.73c-11.576-10.713-23.036-21.551-34.67-32.199c-21.813-19.967-43.626-39.936-65.614-59.707
		c-15.379-13.828-31.045-27.339-46.594-40.979c-12.635-11.085-24.631-22.783-35.123-35.971c-9.51-11.954-19.05-23.889-28.771-35.669
		c-10.661-12.924-21.604-25.614-32.314-38.498c-9.729-11.705-19.322-23.522-28.95-35.313c-8.924-10.927-17.747-21.938-26.743-32.805
		c-5.415-6.541-11.758-12.428-16.399-19.456c-3.435-5.195-8.427-7.06-12.824-6.016c-12.846,3.046-25.771,6.541-37.884,11.693
		c-15.234,6.482-29.063,15.688-41.569,26.784C796.159,572.558,787.32,585.75,789.416,604.456z M1041.797,1009.422
		c1.567-1.165,3.297-2.101,4.576-3.461c5.957-6.34,11.729-12.854,17.688-19.197c5.142-5.473,10.633-10.632,15.547-16.296
		c1.313-1.513,2.18-4.979,1.343-6.493c-2.344-4.234-5.259-8.354-8.71-11.741c-11.643-11.438-23.511-22.648-35.492-33.731
		c-10.832-10.021-21.833-19.868-32.939-29.586c-6.769-5.923-13.947-11.374-20.813-17.189c-10.688-9.053-21.383-18.104-31.862-27.396
		c-14.98-13.285-30.197-26.353-44.499-40.344c-9.952-9.739-18.582-20.841-27.722-31.401c-10.501-12.136-21.009-24.269-31.336-36.552
		c-8.832-10.505-17.283-21.33-26.132-31.818c-13.371-15.848-26.845-31.612-40.464-47.245c-8.205-9.417-16.703-18.583-25.209-27.729
		c-3.612-3.886-6.774-3.164-8.352,1.713c-3.367,10.421-6.234,21.021-10.007,31.291c-7.013,19.1-14.627,37.978-21.792,57.021
		c-4.268,11.348-8.531,22.72-12.109,34.291c-3.4,11-6.145,22.223-8.727,33.448c-1.643,7.139-2.965,14.427-3.536,21.719
		c-1.046,13.356-1.809,26.76-1.999,40.151c-0.287,20.273,5.29,38.863,16.97,55.655c6.103,8.771,13.735,15.987,21.495,23.104
		c7.646,7.012,10.786,7.233,18.313,1.396c11.448-8.884,22.411-18.418,34.088-26.984c7.979-5.854,16.585-10.987,25.368-15.567
		c5.72-2.983,12.117-5.479,18.458-6.293c13.063-1.677,26.21-2.298,39.397,0.558c13.564,2.936,25.633,8.827,35.435,18.206
		c8.12,7.771,14.797,17.088,21.827,25.945c7.719,9.721,15.14,19.678,22.638,29.569c10.497,13.853,24.854,22.67,40.178,29.833
		c15.619,7.301,31.708,13.593,47.582,20.351C1034.447,1006.112,1037.857,1007.676,1041.797,1009.422z M944.263,419.644
		c-0.635,0.009-1.27,0.019-1.903,0.028c0.589,9.253,0.432,18.631,1.952,27.729c1.977,11.82,4.149,23.842,8.291,35.017
		c6.025,16.266,15.5,30.577,28.009,43.105c12.967,12.987,28.307,21.451,45.342,26.796c20.779,6.518,42.063,7.4,63.705,3.689
		c21.819-3.742,40.67-12.988,56.534-28.139c15.235-14.552,24.824-32.573,30.928-52.661c4.576-15.063,4.913-30.602,5.547-46.047
		c0.375-9.125-1.318-18.321-1.771-27.5c-0.521-10.581-0.724-21.178-1.019-31.77c-0.089-3.166-1.129-5.291-4.276-6.873
		c-14.196-7.136-28.223-14.618-42.339-21.917c-19.135-9.892-38.387-19.562-57.397-29.681c-7.083-3.77-13.354-5.256-21.266-1.462
		c-21.615,10.368-43.66,19.845-65.484,29.781c-13.461,6.128-26.863,12.389-40.205,18.771c-1.534,0.734-3.251,2.467-3.596,4.022
		c-0.776,3.519-0.983,7.213-1.008,10.839C944.208,388.796,944.263,404.22,944.263,419.644z M1344.506,849.638
		c-5.257,0.5-10.506,1.146-15.772,1.478c-20.797,1.3-39.959,8.252-58.043,17.901c-17.842,9.521-32.261,23.61-46.463,37.818
		c-18.129,18.137-36.408,36.12-54.565,54.227c-7.887,7.864-16.485,14.804-27.262,18.021c-13.518,4.038-27.296,7.18-40.864,11.047
		c-12.321,3.512-22.827,9.34-26.885,22.845c-2.688,8.942-2.629,17.979-2.885,27.214c-0.407,14.847,2.79,28.747,7.57,42.471
		c0.694,1.99,2.833,4.301,4.782,4.895c8.741,2.663,17.573,5.166,26.53,6.943c8.718,1.729,17.778,1.506,25.396-3.499
		c12.137-7.979,23.592-16.99,35.604-25.171c5.768-3.93,11.828-7.839,18.326-10.178c9.495-3.418,19.403-5.903,29.315-7.887
		c12.252-2.449,24.656-4.218,37.052-5.847c22.828-2.999,45.635-6.091,67.521-13.618c19.051-6.552,37.766-13.819,54.746-25.052
		c11.631-7.692,22.793-15.696,31.385-26.925c6.021-7.871,10.826-16.5,11.595-26.224c1.197-15.144,1.687-30.434,1.087-45.605
		c-0.752-19.021-11.534-32.714-27.395-41.874C1379.771,853.662,1362.649,849.417,1344.506,849.638z M1433.839,777.061
		c0.43-0.068,0.858-0.141,1.288-0.211c-2.079-10.776-3.942-21.604-6.289-32.322c-3.214-14.689-6.235-29.461-10.425-43.884
		c-2.526-8.697-6.98-16.858-10.834-25.14c-1.451-3.119-4.402-5.662-5.367-8.861c-2.666-8.84-8.827-15.235-14.203-22.234
		c-6.984-9.095-15.896-16.044-25.874-21.236c-5.655-2.944-12.409-3.875-18.763-5.294c-1.163-0.26-3.475,1.174-4.023,2.386
		c-0.912,2.007-0.92,4.458-1.143,6.739c-1.176,12.072-5.161,23.362-9.979,34.333c-3.483,7.938-7.317,15.777-11.677,23.265
		c-6.771,11.643-13.766,23.189-21.342,34.316c-6.129,9-13.461,17.172-19.888,25.979c-9.374,12.852-18.262,26.059-27.646,38.898
		c-8.651,11.838-15.656,24.501-20.5,38.328c-0.413,1.179-0.091,3.606,0.69,4.053c5.44,3.099,10.872,7.472,16.734,8.271
		c7.729,1.051,15.987-0.073,23.775-1.551c18.154-3.438,36.034-8.5,54.274-11.243c11.777-1.771,24.02-1.059,36.016-0.557
		c5.628,0.235,12.131,1.228,16.527,4.313c7.226,5.066,13.201,11.979,19.438,18.37c7.517,7.7,16.099,13.488,26.661,15.944
		c1.45,0.337,3.994,0.188,4.585-0.7c2.942-4.42,7.124-8.958,7.704-13.832c1.584-13.337,1.979-26.858,2.068-40.313
		C1435.721,795.609,1434.491,786.333,1433.839,777.061z M1017.285,1061.141c0-4.584-0.07-7.896,0.015-11.204
		c0.151-5.882-1.178-11.248-5.929-15.073c-11.54-9.292-22.676-19.22-34.952-27.429c-13.467-9.005-27.834-16.738-42.164-24.36
		c-19.605-10.431-39.712-19.94-62.896-16.78c-5.865,0.8-12.668,2.067-16.934,5.636c-7.119,5.958-12.728,13.796-18.561,21.168
		c-1.706,2.157-2.121,5.288,0.531,7.915c2.081,2.063,3.752,4.547,5.557,6.883c10.406,13.459,19.991,27.663,31.406,40.202
		c13.248,14.555,27.715,28.073,42.358,41.259c15.229,13.707,32.224,24.062,53.427,26.824c19.372,2.525,34.163-5.244,42.03-22.677
		C1016.001,1082.813,1018.228,1071.618,1017.285,1061.141z M967.534,556.339c-0.856,10.896,0.333,20.163,4.092,28.591
		c4.183,9.378,9.096,18.605,14.969,27.004c5.52,7.892,12.289,15.047,19.26,21.743c8.809,8.463,18.537,15.958,27.576,24.193
		c11.698,10.658,21.648,22.665,27.056,37.88c1.362,3.838,2.737,7.689,4.436,11.385c1.294,2.818,3.136,3.771,6.257,1.542
		c7.9-5.644,15.893-11.197,24.148-16.299c12.188-7.53,23.377-15.837,29.707-29.325c6-12.788,12.729-25.242,18.472-38.14
		c10.089-22.66,19.62-45.567,29.511-68.316c1.627-3.744,0.742-5.807-3.222-5.104c-9.673,1.71-19.618,2.911-28.778,6.197
		c-9.166,3.291-17.434,9.023-26.233,13.404c-17.229,8.575-35.716,11.24-54.728,10.991c-7.539-0.099-15.143-0.092-22.592-1.083
		c-8.418-1.119-17.1-2.255-24.938-5.274c-11.435-4.405-22.155-10.632-33.313-15.798
		C975.737,558.318,971.838,557.629,967.534,556.339z M1162.604,2037.854c10.862,0,21.793,0.718,32.568-0.248
		c7.396-0.661,15.145-2.541,21.75-5.845c14.864-7.426,27.35-18.089,37.322-31.589c11.81-15.984,14.56-25.607-1.629-42.602
		c-7.21-7.568-15.604-14.338-24.409-19.989c-16.903-10.854-34.464-20.688-51.84-30.793c-0.918-0.533-3.138-0.132-3.927,0.657
		c-2.438,2.438-4.316,5.431-6.698,7.936c-7.948,8.354-15.94,16.673-24.067,24.854c-12.213,12.296-24.709,24.314-36.756,36.771
		c-3.875,4.006-8.287,8.619-9.559,13.684c-1.16,4.615,0.86,10.51,2.769,15.329c5.501,13.913,16.376,22.548,29.865,28.193
		C1139.114,2038.868,1150.813,2039.17,1162.604,2037.854z M621.396,946.714c-7.416,0.551-14.887,0.706-22.232,1.742
		c-12.672,1.786-23.854,7.288-31.613,17.485c-6.32,8.306-11.226,17.713-16.459,26.805c-0.949,1.651-1.025,4.285-0.521,6.208
		c1.979,7.563,4.015,15.146,6.661,22.497c4.021,11.173,8.92,22.064,16.9,31.018c13.469,15.107,30.086,26.359,46.981,37.228
		c2.698,1.734,4.61,1.313,6.43-0.951c6.567-8.188,13.919-15.888,19.482-24.712c11.051-17.528,21.45-35.494,31.416-53.667
		c4.063-7.411,6.989-15.643,9.182-23.833c3.066-11.468-2.962-19.479-12.295-25.196C658.821,951.219,641.013,945.739,621.396,946.714
		z M799.017,1035.97c-2.724,0.784-7.419,1.415-11.433,3.413c-20.514,10.218-32.04,27.99-39.328,48.839
		c-4.429,12.67-3.63,25.951-2.438,39.066c0.344,3.784,1.262,8.101,3.452,11.019c5.537,7.373,13.51,11.533,22.384,13.904
		c13.698,3.662,27.694,4.326,41.78,4.229c7.409-0.055,15.002,1.111,22.193-0.123c13.982-2.405,27.68-6.029,37.958-17.224
		c6.989-7.607,11.513-15.815,9.56-26.478c-3.129-17.072-13.224-30.271-24.69-42.351c-9.465-9.968-20-18.956-31.999-25.867
		C818.586,1039.863,810.149,1036.588,799.017,1035.97z M1056.459,1157.909c0.055-0.229,0.11-0.455,0.166-0.684
		c7.272-0.459,14.572-0.662,21.813-1.433c14.611-1.551,29.408-2.377,43.738-5.37c24.432-5.104,48.773-10.654,72.4-19.174
		c21.489-7.746,42.283-16.519,60.561-30.419c10.413-7.92,19.01-17.301,22.888-30.289c1.886-6.313,0.943-7.907-5.566-7.364
		c-6.417,0.531-12.812,1.337-19.222,1.964c-18.047,1.763-34.545,7.721-49.359,18.214c-8.194,5.804-16.089,12.072-24.556,17.441
		c-16.137,10.233-34.499,12.449-52.827,11.013c-19.35-1.521-38.616-4.856-57.706-8.517c-9.28-1.776-16.401,0.127-22.981,6.288
		c-1.434,1.342-3.228,2.29-4.757,3.541c-8.831,7.218-17.332,14.775-22.073,25.488c-3.25,7.343-1.054,13.371,6.813,15.125
		C1035.822,1155.975,1046.219,1156.593,1056.459,1157.909z M994.896,1876.122c-0.477,0.729-0.95,1.458-1.428,2.187
		c2.087,2.476,4.029,5.089,6.284,7.398c19.994,20.49,40.047,40.923,60.075,61.382c4.795,4.899,5.688,4.851,10.986,0.421
		c8.493-7.104,17.086-14.096,25.686-21.074c18.189-14.765,36.453-29.438,54.545-44.324c1.453-1.196,3.031-4.75,2.453-5.438
		c-1.695-2.009-4.352-4.088-6.819-4.348c-3.274-0.346-6.752,0.912-10.104,1.646c-7.876,1.72-15.651,4.363-23.612,5.128
		c-13.44,1.291-26.995,1.793-40.507,1.927c-13.232,0.13-26.502-0.242-39.71-1.087
		C1020.096,1879.129,1007.508,1877.43,994.896,1876.122z"/>
	<path fill="#FFFFFF" d="M1065,1c0.322,0.328,0.627,0.923,0.969,0.946c12.511,0.822,18.575,8.636,21.159,19.861
		c2.505,10.881,4.745,21.83,6.807,32.804c0.521,2.763,1.529,4.18,4.271,4.444c18.112,1.75,34.676,8.181,50.328,17.081
		c12.732,7.241,23.001,17.382,32.437,28.483c11.525,13.56,20.755,28.565,28.891,44.325c13.354,25.864,26.979,51.588,40.176,77.531
		c10.164,19.979,22.932,38.232,37.328,55.206c8.288,9.772,17.996,18.622,28.188,26.417c10.688,8.171,22.197,15.654,34.283,21.506
		c16.521,7.999,33.935,14.054,52.146,17.514c16.879,3.208,33.753,6.084,51.007,6.101c3.938,0.004,7.876,0.7,11.821,0.92
		c4.145,0.231,3.44,3.447,2.873,5.503c-1.602,5.796-3.189,11.731-5.884,17.057c-3.958,7.831-9.001,15.104-13.343,22.751
		c-7.256,12.781-17.682,22.842-27.711,33.318c-16.072,16.785-34.479,30.636-54.203,42.584c-12.664,7.67-26.193,14.014-39.689,20.178
		c-16.358,7.472-33.559,12.656-51.368,15.37c-9.311,1.418-18.742,2.008-28.12,2.973c-1.084,0.111-2.168,0.229-4.999,0.529
		c5.544,4.521,9.554,8.761,14.399,11.538c9.511,5.445,19.625,9.821,29.229,15.113c12.284,6.771,25.254,12.725,34.646,23.646
		c9.258,10.764,15.106,22.622,14.106,37.693c-1.025,15.449-7.328,28.818-14.082,42.019c-9.297,18.167-19.172,36.062-29.447,53.695
		c-7.672,13.165-15.971,26.012-24.717,38.489c-9.857,14.065-20.271,27.767-30.938,41.23c-7.447,9.403-15.479,18.384-23.724,27.104
		c-6.953,7.357-8.613,5.647-16.432,0.263c-12.746-8.78-25.066-18.183-37.507-27.399c-13.63-10.1-27.216-20.257-40.771-30.452
		c-9.203-6.921-18.33-13.944-27.48-20.936c-1.046-0.798-2.095-1.607-3.039-2.517c-5.606-5.39-5.24-6.563,1.359-11.101
		c13.951-9.583,26.594-20.688,36.369-34.621c6.415-9.141,13.091-18.271,18.096-28.188c8.262-16.369,15.109-33.443,22.844-50.085
		c6.84-14.722,14.176-29.209,21.105-43.888c6.979-14.773,13.727-29.656,20.623-44.6c-0.625-0.706-1.05-1.569-1.729-1.896
		c-9.395-4.512-7.573-12.317-6.298-20.229c1.332-8.271,1.963-16.652,3.229-24.936c1.24-8.097,3.012-16.109,4.348-24.192
		c1.96-11.866,3.763-23.758,5.589-35.646c0.728-4.733,1.315-9.486,2.012-14.224c1.507-10.269-1.229-19.724-4.816-29.238
		c-2.404-6.376-3.732-13.215-4.965-19.952c-0.635-3.475-1.962-5.101-5.398-5.952c-11.578-2.869-23.242-5.563-34.565-9.266
		c-12.71-4.156-25.465-8.536-37.511-14.268c-16.438-7.82-32.576-16.678-44.297-31.188c-5.551-6.872-9.774-14.813-14.909-22.746
		c-2.751,1.601-6.521,3.246-9.642,5.714c-8.31,6.58-16.129,13.787-24.526,20.244c-13.021,10.011-25.325,21.326-40.687,27.674
		c-11.338,4.686-23.271,7.97-35.027,11.59c-9.229,2.842-18.584,5.278-27.906,7.799c-1.251,0.338-1.666,0.38-2.966,0.674
		c-3.919,0.888-6.438,1.099-7.114,4.648c-2.55,13.398-5.873,26.684-7.668,40.177c-1.057,7.937,0.27,16.183,0.438,24.292
		c0.149,7.208,0.305,14.419,0.236,21.627c-0.135,14.312,3.75,27.938,7.044,41.645c2.459,10.229,5.677,20.275,8.254,30.479
		c1.367,5.412-0.899,8.012-6.202,8.646c-3.091,0.371-6.209,1.063-9.144,2.097c-10.347,3.641-20.832,3.524-31.704,3.191
		c-17.885-0.549-35.108-4.25-52.203-8.598c-10.271-2.612-20.218-6.749-30.014-10.902c-9.909-4.2-19.889-8.549-29.055-14.12
		c-14.027-8.526-27.866-17.53-40.884-27.512c-11.28-8.647-21.523-18.707-31.805-28.583c-6.584-6.326-13.174-12.909-18.376-20.346
		c-7.573-10.826-14.282-22.316-20.595-33.939c-3.201-5.894-4.937-12.634-6.917-19.119c-0.889-2.903,0.169-5.041,4.026-5.046
		c5.558-0.007,11.113-0.783,16.668-0.77c19.611,0.044,39.024-2.497,58.046-6.591c13.497-2.905,26.569-8.226,39.466-13.388
		c21.221-8.495,39.822-21.427,55.751-37.638c9.934-10.111,18.624-21.558,27.028-33.022c7.286-9.937,13.817-20.499,19.892-31.232
		c6.185-10.932,11.369-22.429,17.054-33.647c6.737-13.294,13.121-26.792,20.438-39.761c6.688-11.849,13.739-23.613,21.838-34.519
		c14.133-19.034,31.475-34.887,53.837-43.594c11.044-4.301,23.087-6.2,34.806-8.548c6.835-1.37,7.934-1.283,7.813-7.971
		c-0.19-10.493,2.106-20.499,5.503-30.169c3.115-8.878,8.737-15.886,19.146-17.09c0.85-0.098,1.641-0.705,2.457-1.075
		C1058.334,1,1061.666,1,1065,1z"/>
	<path fill="#FFFFFF" d="M177,1743c1.348-5.838,2.381-11.771,4.105-17.493c4.078-13.538,8.193-27.078,12.824-40.434
		c7.601-21.921,15.746-43.652,23.361-65.568c1.528-4.396,3.158-4.989,6.905-2.604c7.304,4.643,15.849,7.916,21.928,13.777
		c12.39,11.949,27.933,18.896,41.654,28.66c14.823,10.547,30.135,20.436,45.53,30.14c10.929,6.89,22.224,13.224,33.574,19.396
		c15.482,8.42,31.041,16.725,46.813,24.583c19.99,9.963,40.076,19.771,60.408,29.015c19.101,8.687,38.558,16.586,57.886,24.769
		c10.064,4.26,20.053,8.763,30.323,12.47c13.432,4.847,27.104,9.027,40.681,13.468c8.571,2.806,17.079,5.854,25.761,8.271
		c17.11,4.764,34.326,9.151,51.492,13.719c9.777,2.603,19.504,5.419,29.334,7.813c8.117,1.976,16.338,3.533,24.535,5.164
		c8.724,1.734,17.453,3.459,26.219,4.969c12.284,2.113,24.566,4.291,36.916,5.965c21.398,2.902,42.837,5.547,64.283,8.091
		c14.729,1.748,29.492,3.201,44.253,4.664c5.032,0.499,10.103,0.624,16.28,0.985c-1.488,2.965-2.285,5.198-3.604,7.065
		c-13.157,18.646-29.073,34.688-46.45,49.396c-19.658,16.634-40.874,30.769-64.378,41.422c-14.423,6.535-29.736,10.18-45.29,10.537
		c-12.908,0.298-25.36-3.359-36.857-10.681c-11.029-7.021-17.753-17.286-25.114-27.307c-7.538,4.767-15.018,9.464-22.463,14.214
		c-8.604,5.489-17.957,9.354-28.06,10.253c-16.474,1.466-28.547-7.896-34.214-23.771c-1.863-5.22-3.935-10.364-6.033-15.862
		c-4.55,2.371-8.889,5.021-13.524,6.963c-8.188,3.424-16.442,6.78-24.908,9.39c-3.069,0.946-6.819-0.434-10.267-0.564
		c-9.08-0.352-17.471-2.672-23.509-9.831c-8.104-9.612-15.104-19.925-17.321-32.742c-0.342-1.969-1.435-3.808-2.095-5.492
		c-8.043,4.015-15.265,8.287-22.978,11.307c-11.154,4.361-22.936,6.51-34.643,2.585c-10.184-3.413-17.023-11.079-20.021-21.254
		c-2.104-7.145-2.553-14.772-3.746-22.188c-0.154-0.96-0.334-1.916-0.631-3.61c-4.136,1.875-7.971,3.572-11.771,5.345
		c-11.905,5.548-24.029,10.184-37.492,9.889c-14.672-0.32-28.086-9.561-33.374-22.972c-2.634-6.678-6.951-12.796-6.482-20.563
		c0.046-0.752-3.736-2.86-4.981-2.38c-7.311,2.822-14.25,6.611-21.589,9.342c-8.87,3.301-18.045,4.541-27.601,2.577
		c-9.405-1.933-16.56-7.514-21.599-14.811c-3.638-5.271-5.132-12.298-6.525-18.77c-1.988-9.233-3.009-18.679-4.536-28.635
		c-3.054,0.358-6.597,0.741-10.129,1.201c-9.812,1.276-19.611,3.578-29.429,3.646c-13.781,0.099-27.567-1.546-36.516-14.373
		c-1.271-1.822-2.298-3.99-2.801-6.146c-1.544-6.627-2.78-13.326-4.135-19.998C177,1745,177,1744,177,1743z"/>
	<path fill="#FFFFFF" d="M972,2049c-0.875-0.361-1.796-1.119-2.62-1.025c-10.058,1.152-19.88-0.891-29.341-3.461
		c-8.904-2.419-17.739-6.013-25.744-10.593c-10.253-5.867-20.203-12.583-29.18-20.229c-4.731-4.029-7.893-10.498-10.309-16.454
		c-1.802-4.441-0.564-9.409,3.032-13.655c17.271-20.379,38.667-35.479,61.479-48.837c3.065-1.797,6.071-3.699,9.113-5.539
		c17.146-10.367,32.896-4.351,45.769,5.444c15.445,11.753,25.622,27.688,34.37,44.623c5.128,9.927,9.933,20.021,14.802,30.077
		c1.373,2.839,2.316,5.364-1.236,7.974c-14.1,10.35-28.226,20.669-44.978,26.342c-6.164,2.087-12.778,2.839-19.175,4.249
		c-1.024,0.228-1.989,0.716-2.982,1.084C974,2049,973,2049,972,2049z"/>
	<path fill="#FFFFFF" d="M947.083,1171.032c3.612,0.22,7.408,0.309,11.173,0.704c13.793,1.447,27.569,3.063,41.365,4.495
		c13.302,1.382,26.598,3.268,39.938,3.729c13.751,0.479,27.585,0.001,41.322-0.939c28.13-1.929,56.124-4.793,83.377-12.854
		c17.841-5.275,34.983-12.008,51.681-20.192c26.985-13.227,50.869-30.876,73.922-49.897c10.021-8.271,20.486-16.029,31.05-23.605
		c13.886-9.961,27.881-19.794,42.182-29.142c9.451-6.178,12.396-5.413,22.537,2.326c22.929,17.496,43.917,37.17,64.632,57.167
		c10.719,10.346,21.809,20.308,32.408,30.768c12.734,12.564,25.116,25.487,37.674,38.232c10.391,10.543,20.965,20.905,31.18,31.616
		c11.065,11.603,21.701,23.612,32.729,35.257c8.332,8.799,17.222,17.077,25.433,25.982c12.054,13.075,23.652,26.567,35.579,39.763
		c7.697,8.517,15.712,16.744,23.441,25.232c8.678,9.53,17.324,19.096,25.746,28.854c9.414,10.906,18.484,22.111,27.842,33.072
		c11.08,12.98,22.553,25.637,33.402,38.805c13.455,16.33,26.644,32.891,39.582,49.634c12.478,16.146,24.857,32.396,36.57,49.097
		c7.223,10.299,13.167,21.497,19.551,32.372c1.138,1.938,1.838,4.21,2.34,6.42c1.25,5.496-3.752,6.076-6.775,7.688
		c-13.553,7.226-27.378,13.941-40.893,21.234c-9.103,4.911-17.902,10.391-26.741,15.771c-19.236,11.713-38.377,23.582-57.622,35.28
		c-15.021,9.132-30.178,18.045-45.209,27.163c-14.191,8.607-28.178,17.563-42.479,25.982c-13.183,7.761-26.515,15.296-40.047,22.42
		c-18.404,9.688-36.777,19.524-55.707,28.1c-14.162,6.415-29.123,11.105-43.841,16.244c-11.479,4.009-23.038,7.834-34.724,11.178
		c-14.987,4.289-30.116,8.088-45.221,11.962c-14.114,3.62-28.221,7.314-42.437,10.502c-11.215,2.515-22.585,4.342-33.897,6.412
		c-13.881,2.54-27.735,5.237-41.67,7.448c-11.563,1.832-23.214,3.108-34.838,4.531c-9.496,1.161-19.001,2.271-28.52,3.229
		c-10.68,1.074-21.371,2.057-32.072,2.894c-17.478,1.367-34.954,2.865-52.458,3.778c-14.882,0.775-29.804,0.775-44.706,1.176
		c-9.751,0.263-19.501,0.938-29.247,0.875c-18.126-0.116-36.252-0.528-54.374-1.022c-12.684-0.348-25.369-0.854-38.033-1.617
		c-15.198-0.918-30.406-1.887-45.558-3.382c-15.723-1.554-31.413-3.535-47.06-5.741c-19.897-2.807-39.779-5.775-59.586-9.147
		c-15.356-2.614-30.617-5.819-45.867-9.017c-16.868-3.533-33.729-7.132-50.491-11.129c-11.017-2.627-21.851-6.016-32.771-9.049
		c-10.806-3.002-21.68-5.775-32.404-9.037c-10.662-3.241-21.186-6.943-31.755-10.48c-19.314-6.465-38.729-12.654-57.884-19.559
		c-10.636-3.832-20.791-8.977-31.244-13.335c-8.788-3.663-17.774-6.854-26.524-10.603c-9.825-4.207-19.497-8.774-29.21-13.24
		c-8.86-4.073-17.729-8.135-26.52-12.354c-11.375-5.464-22.72-10.998-34.002-16.65c-12.714-6.369-25.393-12.813-37.996-19.395
		c-16.162-8.438-32.489-16.609-48.277-25.712c-16.961-9.775-33.425-20.422-50.021-30.823c-14.64-9.179-28.807-19.016-40.791-31.618
		c-2.816-2.962-5.386-6.175-7.896-9.404c-2.94-3.785-1.301-7.538,0.832-10.865c7.204-11.235,14.635-22.327,21.93-33.506
		c10.551-16.169,21.151-32.309,31.556-48.571c7.696-12.031,15.059-24.275,22.672-36.361c9.561-15.178,18.992-30.441,28.923-45.375
		c7.854-11.813,16.644-23.002,24.521-34.8c6.841-10.239,13.021-20.927,19.432-31.452c9.709-15.943,19.255-31.988,29.083-47.859
		c7.679-12.402,15.668-24.613,23.544-36.896c3.034-4.731,5.155-4.856,9.94-1.449c6.244,4.445,13.162,8.056,18.959,12.998
		c8.735,7.448,16.976,15.523,25.013,23.736c7.79,7.961,15.142,16.36,22.536,24.699c6.188,6.979,11.755,14.547,18.313,21.141
		c11.464,11.524,22.394,23.699,36.372,32.473c5.715,3.586,10.831,8.183,16.701,11.458c14.714,8.21,30.275,14.204,46.886,17.714
		c13.333,2.814,26.682,4.068,40.271,4.8c23.905,1.285,47.416-1.312,70.774-5.483c10.252-1.832,20.314-5.181,30.173-8.656
		c12.952-4.569,26.008-9.157,38.298-15.203c11.751-5.78,22.948-12.904,33.74-20.375c25.115-17.389,45.3-39.65,60.793-65.876
		c12.605-21.337,22.01-44.078,25.542-68.896C944.354,1188.563,945.679,1180.278,947.083,1171.032z"/>
	<path fill="#FFFFFF" d="M639.498,1127.234c2.499-6.608,4.571-13.161,7.399-19.369c7.625-16.729,14.836-33.705,23.575-49.845
		c10.53-19.446,22.226-38.282,33.931-57.063c3.819-6.131,9.386-11.155,13.877-16.901c1.516-1.938,1.753-4.889,3.296-6.792
		c14.184-17.501,28.612-34.822,46.229-49.06c9.209-7.441,18.318-15.456,30.061-18.579c6.43-1.71,13.313-2.254,20.004-2.332
		c10.759-0.124,21.526,0.644,32.293,0.903c6.985,0.169,14.046-0.479,20.942,0.34c5.373,0.639,10.771,2.465,15.741,4.696
		c5.454,2.447,6.115,6.309,1.563,10.255c-6.376,5.528-13.124,10.794-20.316,15.183c-21.363,13.037-43.601,24.728-64.377,38.616
		c-15.271,10.21-28.163,23.671-38.486,39.177c-10.498,15.767-20.607,31.783-28.375,49.108
		c-6.988,15.593-14.414,31.062-20.156,47.118c-4.455,12.455-6.738,25.705-9.569,38.691c-0.242,1.11,2.401,3.646,4.147,4.261
		c8.356,2.943,16.924,5.294,25.312,8.159c13.652,4.668,27.063,10.125,40.88,14.207c10.839,3.202,22.099,5.095,33.26,7.048
		c5.521,0.966,11.271,0.548,16.879,1.124c12.608,1.295,23.44-3.715,34.464-8.773c9.044-4.152,18.354-7.979,27.898-10.719
		c10.841-3.112,17.756,2.671,18.909,14.064c1.786,17.649,1.112,35.356-4.472,52.031c-4.332,12.938-10.937,25.397-18.296,36.945
		c-6.666,10.459-14.999,20.14-23.934,28.784c-8.065,7.806-17.531,14.404-27.127,20.327c-10.479,6.468-21.463,12.447-32.888,16.975
		c-11.369,4.502-23.414,7.65-35.431,10.061c-11.119,2.23-22.576,2.909-33.92,3.838c-4.761,0.39-9.613-0.56-14.423-0.521
		c-14.049,0.109-28.098,0.658-42.143,0.578c-23.965-0.136-46.88-5.414-68.083-16.56c-13.641-7.17-27.258-14.75-39.669-23.813
		c-18.128-13.234-35.386-27.743-49.295-45.663c-7.573-9.756-15.339-19.399-22.288-29.595
		c-12.495-18.328-21.438-38.475-26.285-60.071c-3.93-17.506-4.54-35.453-2.528-53.381c1.289-11.479,1.642-23.182,4.21-34.371
		c2.934-12.769,7.047-25.419,12.104-37.512c8.76-20.94,23.85-37.161,41.524-51.063c1.005-0.791,2.346-1.145,3.505-1.75
		c4.125-2.157,5.417-0.23,5.411,3.688c-0.014,10.667,0.502,21.365-0.17,31.989c-0.496,7.84,2.281,12.584,8.531,17.315
		c13.168,9.976,25.458,21.104,38.165,31.69c8.479,7.063,17.021,14.048,25.593,20.995c10.123,8.204,20.305,16.335,30.477,24.479
		C637.943,1126.551,638.584,1126.762,639.498,1127.234z"/>
	<path fill="#FFFFFF" d="M1877.981,1612.954c3.187,9.744,6.01,18.679,9.028,27.546c5.188,15.224,10.86,30.292,15.646,45.639
		c4.146,13.298,8.028,26.755,10.786,40.394c3.229,15.979,5.887,32.208,0.51,48.413c-2.563,7.721-9.021,12.716-17.251,12.924
		c-13.101,0.33-24.796-4.163-36.048-10.37c-5.563-3.067-11.348-5.729-16.557-8.336c0.588,10.876,1.557,21.722,1.646,32.574
		c0.073,8.996-1.797,17.719-7.416,25.203c-7.275,9.69-17.343,10.813-28.313,9.436c-14.427-1.813-26.988-8.048-38.875-16.021
		c-1.731-1.161-3.803-1.817-6.371-3.016c-0.351,2.112-0.906,3.813-0.866,5.505c0.302,12.786-0.964,25.449-5.229,37.473
		c-4.367,12.305-14.06,18.207-27.416,16.192c-15.66-2.36-28.636-10.787-42.092-18.171c-0.674-0.37-1.376-0.688-2.816-1.403
		c-0.498,4.068-0.953,7.571-1.352,11.08c-1.457,12.816-3.221,25.395-12.956,35.312c-7.632,7.771-16.61,9.43-26.662,7.222
		c-11.817-2.596-21.192-9.425-29.815-17.604c-5.566-5.28-11.539-10.137-17.328-15.182c0.162-0.466,0.326-0.932,0.488-1.396
		c0,2.921,0.303,5.878-0.053,8.755c-1.492,12.07-2.639,24.229-5.047,36.125c-1.057,5.22-4.134,10.447-7.525,14.687
		c-6.498,8.115-15.938,8.053-25.099,6.406c-13.19-2.369-24.409-9.365-35.503-16.463c-1.619-1.036-3.297-1.979-5.354-3.208
		c-2.261,5.464-3.971,10.568-6.402,15.302c-6.245,12.145-14.24,22.521-26.965,28.979c-21.729,11.021-39.411-2.906-45.533-22.261
		c-0.576-1.822-1.104-3.661-1.723-5.72c-6.84,4.268-12.875,8.847-19.574,12.027c-11.204,5.321-22.608,10.414-34.338,14.403
		c-17.988,6.118-36.586,5.73-55.127,2.524c-19.055-3.295-36.534-10.529-52.646-21.26c-22.219-14.798-41.264-32.855-57.029-54.396
		c-3.323-4.542-6.97-8.854-10.151-13.489c-1.386-2.02-1.978-4.58-3.65-8.653c12.591,0,23.695,0.585,34.717-0.125
		c21.351-1.374,42.706-2.995,63.956-5.422c18.877-2.155,37.661-5.258,56.396-8.479c12.784-2.196,25.478-5.044,38.093-8.091
		c17.546-4.237,35.116-8.476,52.426-13.563c17.633-5.184,35.015-11.244,52.408-17.2c14.139-4.842,28.215-9.887,42.168-15.235
		c10.732-4.111,21.195-8.925,31.842-13.269c14.336-5.852,28.924-11.121,43.06-17.416c19.819-8.827,39.465-18.085,58.916-27.699
		c13.926-6.882,27.85-13.952,40.985-22.193c17.461-10.957,34.291-22.943,51.138-34.851c14.625-10.336,28.855-21.227,43.332-31.774
		c15.604-11.372,31.28-22.645,46.942-33.937c3.291-2.373,6.566-4.788,10.027-6.89
		C1874.688,1613.199,1876.483,1613.263,1877.981,1612.954z"/>
	<path fill="#FFFFFF" d="M789.416,604.456c-2.095-18.706,6.744-31.898,19.717-43.408c12.509-11.098,26.335-20.301,41.569-26.784
		c12.113-5.152,25.038-8.647,37.884-11.693c4.399-1.043,9.392,0.818,12.824,6.016c4.643,7.028,10.985,12.915,16.401,19.456
		c8.994,10.867,17.817,21.878,26.741,32.805c9.628,11.789,19.224,23.605,28.95,35.313c10.71,12.884,21.653,25.572,32.315,38.498
		c9.721,11.78,19.261,23.715,28.771,35.669c10.492,13.188,22.488,24.886,35.123,35.971c15.549,13.64,31.215,27.15,46.594,40.979
		c21.988,19.771,43.803,39.738,65.614,59.707c11.634,10.646,23.094,21.485,34.67,32.198c2.96,2.74,3.62,5.624,2.634,9.73
		c-2.745,11.414-9.014,20.746-16.207,29.625c-12.087,14.916-26.764,26.973-42.813,37.247c-5.932,3.796-12.802,6.897-19.65,8.242
		c-5.494,1.076-11.688-0.572-17.432-1.719c-23.91-4.768-44.371-17.182-63.777-30.951c-22.369-15.875-44.014-32.821-65.385-50.032
		c-13.27-10.688-25.593-22.571-38.076-34.203c-13.548-12.625-27.193-25.188-40.056-38.493c-14.94-15.46-29.319-31.487-43.486-47.666
		c-11.459-13.087-22.587-26.5-33.217-40.268c-8.212-10.636-15.575-21.942-23.037-33.138c-6.229-9.344-12.784-18.584-17.855-28.551
		C792.725,628.18,787.451,616.902,789.416,604.456z"/>
	<path fill="#FFFFFF" d="M1041.797,1009.422c-3.938-1.747-7.35-3.31-10.799-4.778c-15.874-6.756-31.963-13.048-47.582-20.349
		c-15.322-7.162-29.681-15.981-40.178-29.833c-7.498-9.893-14.918-19.85-22.636-29.57c-7.032-8.856-13.709-18.176-21.829-25.944
		c-9.803-9.378-21.869-15.271-35.435-18.206c-13.188-2.854-26.333-2.232-39.397-0.558c-6.339,0.813-12.739,3.31-18.458,6.292
		c-8.782,4.581-17.39,9.716-25.368,15.568c-11.677,8.566-22.638,18.1-34.088,26.984c-7.525,5.839-10.667,5.615-18.313-1.396
		c-7.76-7.116-15.394-14.334-21.495-23.104c-11.681-16.792-17.257-35.383-16.97-55.655c0.189-13.394,0.953-26.795,1.999-40.151
		c0.57-7.292,1.896-14.581,3.536-21.719c2.582-11.228,5.325-22.449,8.729-33.448c3.577-11.572,7.841-22.943,12.107-34.291
		c7.165-19.045,14.779-37.923,21.792-57.021c3.771-10.271,6.641-20.87,10.007-31.291c1.576-4.877,4.738-5.6,8.352-1.713
		c8.506,9.146,17.005,18.313,25.209,27.729c13.621,15.633,27.093,31.397,40.464,47.245c8.849,10.489,17.3,21.313,26.132,31.818
		c10.327,12.283,20.835,24.417,31.336,36.552c9.14,10.562,17.77,21.662,27.722,31.4c14.302,13.992,29.519,27.06,44.499,40.345
		c10.479,9.292,21.174,18.344,31.862,27.396c6.866,5.816,14.046,11.268,20.815,17.189c11.104,9.719,22.105,19.563,32.938,29.586
		c11.981,11.083,23.852,22.295,35.492,33.73c3.451,3.391,6.366,7.508,8.71,11.742c0.837,1.516-0.03,4.979-1.343,6.493
		c-4.914,5.665-10.405,10.823-15.549,16.296c-5.957,6.341-11.729,12.856-17.688,19.197
		C1045.094,1007.322,1043.364,1008.257,1041.797,1009.422z"/>
	<path fill="#FFFFFF" d="M944.263,419.644c0-15.423-0.055-30.847,0.041-46.27c0.023-3.625,0.23-7.32,1.008-10.839
		c0.345-1.555,2.063-3.288,3.596-4.022c13.342-6.382,26.744-12.642,40.205-18.771c21.824-9.936,43.867-19.413,65.484-29.781
		c7.909-3.793,14.183-2.307,21.266,1.462c19.013,10.119,38.265,19.789,57.397,29.681c14.116,7.299,28.143,14.78,42.339,21.917
		c3.147,1.583,4.188,3.707,4.276,6.873c0.295,10.592,0.496,21.189,1.019,31.77c0.452,9.179,2.146,18.375,1.771,27.5
		c-0.634,15.445-0.971,30.981-5.547,46.047c-6.104,20.087-15.69,38.109-30.928,52.661c-15.864,15.148-34.715,24.396-56.534,28.139
		c-21.645,3.711-42.927,2.827-63.705-3.689c-17.035-5.345-32.375-13.809-45.342-26.796c-12.507-12.528-21.981-26.841-28.009-43.105
		c-4.142-11.175-6.313-23.195-8.291-35.017"/>
	<path fill="#FFFFFF" d="M1344.506,849.638c18.144-0.22,35.265,4.024,50.776,12.981c15.859,9.159,26.642,22.852,27.394,41.874
		c0.601,15.173,0.11,30.463-1.087,45.605c-0.77,9.724-5.572,18.354-11.595,26.224c-8.593,11.229-19.754,19.231-31.384,26.925
		c-16.981,11.232-35.696,18.5-54.747,25.052c-21.886,7.527-44.691,10.619-67.521,13.618c-12.396,1.629-24.8,3.396-37.052,5.848
		c-9.912,1.98-19.82,4.47-29.314,7.887c-6.498,2.338-12.562,6.249-18.327,10.177c-12.014,8.181-23.469,17.191-35.604,25.171
		c-7.615,5.005-16.678,5.229-25.395,3.499c-8.957-1.776-17.79-4.28-26.531-6.942c-1.949-0.595-4.088-2.901-4.782-4.896
		c-4.78-13.723-7.979-27.624-7.569-42.469c0.256-9.235,0.195-18.272,2.884-27.215c4.058-13.506,14.563-19.332,26.885-22.846
		c13.569-3.868,27.349-7.01,40.864-11.047c10.774-3.219,19.375-10.157,27.262-18.021c18.157-18.107,36.438-36.092,54.567-54.229
		c14.2-14.208,28.62-28.297,46.461-37.816c18.084-9.651,37.247-16.604,58.044-17.903
		C1334,850.784,1339.249,850.138,1344.506,849.638z"/>
	<path fill="#FFFFFF" d="M1433.839,777.061c0.652,9.272,1.882,18.55,1.819,27.816c-0.091,13.454-0.486,26.977-2.07,40.314
		c-0.58,4.872-4.761,9.409-7.704,13.831c-0.591,0.889-3.135,1.037-4.585,0.699c-10.563-2.457-19.146-8.245-26.661-15.943
		c-6.238-6.394-12.215-13.305-19.438-18.371c-4.396-3.085-10.9-4.075-16.528-4.313c-11.995-0.502-24.235-1.215-36.015,0.558
		c-18.241,2.743-36.121,7.804-54.275,11.243c-7.788,1.477-16.048,2.601-23.773,1.55c-5.864-0.797-11.294-5.17-16.736-8.271
		c-0.781-0.443-1.104-2.874-0.689-4.053c4.843-13.827,11.848-26.489,20.5-38.328c9.387-12.841,18.271-26.048,27.646-38.896
		c6.427-8.812,13.759-16.981,19.888-25.981c7.576-11.127,14.569-22.676,21.343-34.315c4.356-7.487,8.19-15.326,11.677-23.266
		c4.814-10.971,8.802-22.261,9.978-34.333c0.223-2.28,0.229-4.731,1.143-6.739c0.551-1.211,2.86-2.646,4.023-2.386
		c6.354,1.419,13.105,2.353,18.764,5.294c9.977,5.192,18.89,12.145,25.873,21.236c5.377,6.999,11.537,13.396,14.203,22.236
		c0.965,3.197,3.916,5.74,5.367,8.859c3.854,8.279,8.309,16.441,10.834,25.141c4.188,14.422,7.211,29.192,10.426,43.883
		c2.346,10.72,4.209,21.545,6.288,32.323C1434.697,776.92,1434.269,776.991,1433.839,777.061z"/>
	<path fill="#FFFFFF" d="M1017.285,1061.141c0.942,10.479-1.284,21.676-6.108,32.361c-7.869,17.431-22.658,25.202-42.031,22.677
		c-21.201-2.765-38.197-13.118-53.426-26.826c-14.645-13.184-29.111-26.703-42.358-41.257c-11.416-12.539-21-26.744-31.406-40.203
		c-1.806-2.334-3.476-4.818-5.558-6.882c-2.651-2.627-2.236-5.757-0.53-7.915c5.833-7.372,11.439-15.21,18.561-21.168
		c4.267-3.567,11.066-4.836,16.935-5.636c23.186-3.161,43.291,6.351,62.896,16.78c14.33,7.622,28.697,15.355,42.164,24.36
		c12.276,8.209,23.413,18.137,34.952,27.429c4.751,3.825,6.08,9.191,5.929,15.073
		C1017.215,1053.244,1017.285,1056.557,1017.285,1061.141z"/>
	<path fill="#FFFFFF" d="M967.534,556.339c4.304,1.29,8.204,1.979,11.678,3.588c11.157,5.166,21.88,11.394,33.313,15.797
		c7.84,3.021,16.521,4.156,24.938,5.275c7.449,0.99,15.053,0.984,22.592,1.083c19.012,0.249,37.498-2.417,54.728-10.991
		c8.802-4.381,17.068-10.114,26.234-13.405c9.159-3.288,19.104-4.486,28.777-6.196c3.964-0.701,4.85,1.361,3.223,5.104
		c-9.892,22.749-19.423,45.657-29.512,68.316c-5.742,12.896-12.472,25.353-18.472,38.14c-6.33,13.488-17.52,21.795-29.707,29.325
		c-8.257,5.101-16.248,10.655-24.148,16.299c-3.12,2.229-4.963,1.276-6.257-1.542c-1.695-3.695-3.07-7.547-4.436-11.385
		c-5.405-15.215-15.355-27.222-27.056-37.88c-9.04-8.234-18.769-15.73-27.575-24.193c-6.973-6.697-13.742-13.853-19.261-21.743
		c-5.874-8.396-10.784-17.626-14.969-27.004C967.867,576.502,966.677,567.235,967.534,556.339z"/>
	<path fill="#FFFFFF" d="M1162.604,2037.854c-11.791,1.313-23.489,1.014-34.608-3.643c-13.489-5.646-24.364-14.28-29.865-28.191
		c-1.906-4.821-3.929-10.716-2.769-15.332c1.271-5.063,5.684-9.677,9.559-13.683c12.047-12.454,24.543-24.475,36.756-36.771
		c8.127-8.183,16.119-16.499,24.067-24.854c2.382-2.505,4.263-5.495,6.7-7.936c0.787-0.789,3.007-1.19,3.925-0.657
		c17.376,10.104,34.937,19.938,51.84,30.793c8.806,5.652,17.199,12.421,24.409,19.989c16.188,16.99,13.438,26.613,1.629,42.602
		c-9.975,13.5-22.458,24.163-37.322,31.589c-6.607,3.303-14.354,5.184-21.75,5.846
		C1184.396,2038.572,1173.468,2037.854,1162.604,2037.854z"/>
	<path fill="#FFFFFF" d="M621.396,946.714c19.617-0.975,37.426,4.504,53.932,14.621c9.333,5.72,15.359,13.729,12.295,25.196
		c-2.191,8.19-5.119,16.422-9.184,23.833c-9.963,18.172-20.362,36.138-31.416,53.667c-5.563,8.823-12.913,16.521-19.48,24.712
		c-1.818,2.267-3.729,2.688-6.43,0.951c-16.896-10.866-33.515-22.118-46.981-37.228c-7.981-8.951-12.879-19.845-16.901-31.018
		c-2.646-7.35-4.681-14.934-6.66-22.497c-0.504-1.923-0.43-4.557,0.521-6.208c5.233-9.092,10.138-18.499,16.459-26.805
		c7.761-10.197,18.94-15.699,31.613-17.485C606.51,947.42,613.981,947.266,621.396,946.714z"/>
	<path fill="#FFFFFF" d="M799.017,1035.97c11.134,0.618,19.569,3.896,27.438,8.428c11.998,6.913,22.534,15.901,31.999,25.869
		c11.468,12.077,21.563,25.276,24.691,42.351c1.951,10.66-2.57,18.868-9.561,26.478c-10.28,11.192-23.976,14.816-37.958,17.224
		c-7.19,1.234-14.784,0.068-22.194,0.123c-14.084,0.1-28.082-0.564-41.779-4.229c-8.874-2.371-16.848-6.531-22.383-13.904
		c-2.19-2.918-3.109-7.232-3.453-11.019c-1.191-13.115-1.99-26.396,2.438-39.066c7.288-20.849,18.814-38.621,39.328-48.839
		C791.598,1037.385,796.293,1036.754,799.017,1035.97z"/>
	<path fill="#FFFFFF" d="M1056.459,1157.909c-10.24-1.316-20.637-1.937-30.672-4.173c-7.865-1.754-10.063-7.782-6.813-15.125
		c4.741-10.713,13.242-18.271,22.073-25.488c1.529-1.251,3.323-2.199,4.757-3.541c6.58-6.161,13.701-8.066,22.981-6.288
		c19.09,3.658,38.357,6.996,57.706,8.516c18.328,1.438,36.69-0.776,52.827-11.012c8.467-5.37,16.359-11.64,24.556-17.441
		c14.813-10.493,31.313-16.451,49.359-18.215c6.409-0.627,12.805-1.432,19.222-1.965c6.512-0.542,7.452,1.053,5.566,7.366
		c-3.879,12.988-12.475,22.369-22.887,30.289c-18.276,13.9-39.07,22.673-60.562,30.419c-23.627,8.518-47.971,14.07-72.4,19.174
		c-14.329,2.993-29.127,3.819-43.739,5.37c-7.239,0.769-14.539,0.973-21.813,1.432
		C1056.569,1157.454,1056.514,1157.682,1056.459,1157.909z"/>
	<path fill="#FFFFFF" d="M994.896,1876.122c12.612,1.308,25.201,3.007,37.848,3.813c13.208,0.846,26.476,1.218,39.71,1.089
		c13.512-0.135,27.063-0.637,40.507-1.928c7.961-0.765,15.736-3.409,23.612-5.128c3.354-0.731,6.83-1.99,10.104-1.646
		c2.469,0.26,5.124,2.339,6.819,4.348c0.578,0.688-1,4.24-2.453,5.438c-18.092,14.887-36.354,29.563-54.545,44.325
		c-8.601,6.979-17.19,13.971-25.688,21.074c-5.296,4.431-6.189,4.479-10.984-0.421c-20.027-20.459-40.081-40.892-60.075-61.382
		c-2.254-2.313-4.197-4.925-6.284-7.398C993.943,1877.58,994.419,1876.853,994.896,1876.122z"/>
</g>
</svg>
